<?xml version="1.0" standalone="no"?>
<!DOCTYPE svg PUBLIC "-//W3C//DTD SVG 20010904//EN"
 "http://www.w3.org/TR/2001/REC-SVG-20010904/DTD/svg10.dtd">
<svg version="1.0" xmlns="http://www.w3.org/2000/svg"
 width="864.000000pt" height="864.000000pt" viewBox="0 0 864.000000 864.000000"
 preserveAspectRatio="xMidYMid meet">
<metadata>
Created by potrace 1.11, written by Peter Selinger 2001-2013
</metadata>
<g transform="translate(0.000000,864.000000) scale(0.100000,-0.100000)"
fill="#000000" stroke="none">
<path d="M4823 8602 c-12 -16 -35 -42 -50 -58 -15 -16 -58 -66 -95 -110 -75
-90 -75 -85 -1 -141 56 -43 211 -191 323 -309 54 -57 222 -252 248 -289 4 -6
23 -30 43 -55 19 -25 55 -74 80 -110 24 -36 47 -67 50 -70 3 -3 42 -59 85
-125 43 -66 82 -121 86 -123 5 -2 8 -7 8 -12 0 -4 18 -39 40 -76 34 -57 40
-75 35 -103 -8 -43 -34 -204 -40 -251 -3 -19 -7 -46 -10 -60 -13 -64 -16 -77
-20 -114 -3 -22 -10 -58 -15 -80 -5 -23 -11 -59 -14 -81 -4 -23 -9 -52 -12
-65 -3 -14 -7 -36 -10 -50 -2 -14 -7 -36 -9 -50 -12 -59 -15 -76 -20 -102 -3
-14 -21 -104 -41 -200 -20 -95 -38 -183 -40 -196 -12 -66 -248 -785 -264 -807
-4 -5 -11 -26 -15 -45 -4 -19 -11 -39 -15 -45 -5 -5 -9 -13 -9 -18 0 -4 -8
-23 -16 -43 -8 -20 -15 -38 -15 -41 0 -5 -94 -243 -116 -293 -8 -19 -19 -44
-24 -55 -5 -11 -23 -51 -40 -90 -18 -38 -33 -74 -34 -80 -1 -5 -16 -38 -34
-72 -17 -35 -28 -63 -24 -63 4 0 3 -4 -3 -8 -5 -4 -38 -63 -73 -132 -77 -155
-108 -210 -180 -328 -31 -51 -62 -103 -69 -116 -20 -37 -178 -259 -200 -282
-7 -7 -13 -15 -13 -19 0 -4 -6 -12 -12 -19 -7 -7 -33 -37 -58 -66 -137 -161
-298 -304 -460 -409 -52 -34 -100 -61 -106 -61 -6 0 -17 -7 -24 -15 -7 -9 -15
-13 -18 -11 -2 3 -17 -1 -33 -10 -16 -8 -31 -14 -34 -14 -3 1 -18 -6 -33 -14
-25 -13 -132 -47 -193 -60 -124 -27 -385 -28 -504 -2 -11 2 -42 9 -70 15 -70
16 -203 60 -248 83 -33 17 -61 42 -130 122 -11 12 -42 57 -71 101 -71 109
-105 183 -151 325 -79 244 -190 359 -278 290 -34 -27 -81 -125 -108 -225 -23
-89 -33 -252 -18 -312 5 -21 11 -45 13 -53 9 -36 50 -119 81 -166 40 -60 142
-165 185 -191 17 -9 30 -21 30 -25 0 -4 4 -8 9 -8 6 0 30 -14 55 -31 151 -102
494 -219 741 -254 47 -7 80 -13 80 -15 0 -1 18 -3 40 -5 22 -2 76 -7 120 -12
125 -13 655 -7 655 7 0 3 12 5 28 4 15 0 43 3 62 7 19 4 55 11 80 14 25 4 68
13 95 20 28 7 52 11 54 9 2 -2 -30 -55 -70 -119 -41 -63 -78 -123 -84 -133 -5
-9 -16 -21 -22 -25 -7 -4 -13 -12 -13 -18 0 -14 -435 -628 -460 -649 -3 -3
-51 -66 -107 -140 -197 -262 -266 -351 -290 -376 -7 -7 -13 -16 -13 -21 0 -4
-15 -25 -33 -45 -32 -37 -46 -55 -89 -113 -13 -16 -26 -34 -30 -40 -4 -5 -18
-23 -31 -40 -13 -16 -73 -95 -133 -175 -60 -80 -111 -147 -114 -150 -17 -14
-49 -69 -55 -92 -5 -20 -1 -30 19 -45 26 -21 51 -22 116 -8 19 4 44 9 55 11
11 1 83 16 160 33 159 36 150 33 230 55 68 19 68 19 150 41 79 21 412 134 447
152 15 7 30 13 33 13 3 0 20 6 38 14 19 7 45 17 58 21 24 7 49 19 255 114 61
28 116 51 121 51 6 0 13 4 15 8 2 5 41 27 88 51 157 78 367 202 550 324 93 62
367 262 380 277 3 3 34 30 70 59 204 167 547 507 661 656 13 17 26 32 29 35 3
3 33 41 68 85 34 44 66 85 72 92 5 7 10 15 10 19 0 4 6 12 13 18 13 11 177
251 177 259 0 2 25 45 55 95 30 50 55 96 55 102 0 5 4 10 10 10 5 0 9 3 8 8 0
4 30 72 69 152 38 80 78 168 88 195 9 28 22 54 26 60 5 5 9 15 9 21 0 7 5 25
12 41 6 15 12 30 13 33 0 3 15 50 32 105 27 87 50 165 57 200 2 6 8 28 14 50
6 22 13 54 15 70 3 17 10 50 15 75 6 25 13 63 17 85 3 22 8 54 11 70 5 30 8
53 20 190 3 39 8 73 11 78 2 4 -1 7 -8 7 -8 0 -8 4 -2 13 20 25 1 534 -23 617
-2 9 -6 34 -8 55 -3 22 -7 51 -10 65 -5 22 -15 73 -30 150 -3 14 -10 43 -16
65 -6 22 -15 56 -20 75 -4 19 -20 73 -35 120 -14 47 -28 90 -29 95 -2 6 -6 17
-9 25 -3 8 -15 44 -27 80 -12 36 -26 73 -31 83 -5 9 -21 47 -34 84 -74 196
-242 535 -403 813 -30 52 -60 105 -66 117 -6 13 -14 23 -18 23 -5 0 -8 6 -8
13 0 6 -20 43 -45 80 -24 37 -44 69 -44 70 2 7 -37 67 -43 67 -5 0 -8 4 -8 9
0 10 -75 136 -96 161 -7 9 -26 40 -42 70 -16 30 -55 105 -88 165 -32 61 -69
130 -82 155 -12 25 -32 60 -43 79 -11 19 -36 64 -56 100 -19 36 -39 73 -43 81
-71 119 -130 224 -130 231 0 5 -5 9 -11 9 -5 0 -8 4 -5 9 3 5 -1 14 -9 21 -8
7 -15 19 -15 26 0 8 -4 14 -9 14 -5 0 -11 8 -15 18 -3 9 -24 44 -46 77 -22 33
-43 67 -47 75 -5 13 -132 204 -156 235 -4 5 -31 42 -60 80 -28 39 -56 75 -62
82 -5 7 -30 37 -55 67 -25 30 -47 55 -50 55 -3 1 -15 -12 -27 -27z"/>
</g>
</svg>
